<svg xmlns="http://www.w3.org/2000/svg" width="260" height="200" viewBox="0 0 260 200">
    <g id="img_update" transform="translate(-58 -90)">
        <path id="Path_3" fill="#03DAC5" d="M89.181 52.9c14.5-5.5 39-58 76-52.5s25 79.5 25 79.5-17 94-115.5 86.5-82-103-49.5-115c17.5-6.5 49.5 7 64 1.5z" opacity="0.4" transform="translate(87.319 106.597)"/>
        <g id="system-update" transform="translate(125 127.4)">
            <path id="Path_2" fill="#03DAC5" d="M61.695 108H46.3l-6.189-13.078-5.225-2.167-13.628 4.87-10.884-10.884 4.871-13.628-2.167-5.225L0 61.695V46.3l13.078-6.193 2.167-5.225-4.871-13.623 10.885-10.884 13.635 4.874 5.214-2.16L46.3 0h15.39l6.2 13.088 5.214 2.16 13.636-4.873 10.885 10.884-4.871 13.628 2.167 5.225L108 46.3v15.39l-13.079 6.198-2.167 5.225 4.871 13.628L86.74 97.625l-13.628-4.87-5.225 2.167zm0 0" transform="translate(9 8.6)"/>
            <g id="refresh" transform="translate(40.732 34.327)">
                <g id="Group_1">
                    <path id="Path_1" fill="#fff" d="M54.784 30.834A22 22 0 0 1 76.359 6.3V.389a.424.424 0 0 1 .68-.305l12.166 8.94a.374.374 0 0 1 0 .6l-12.154 8.94a.422.422 0 0 1-.68-.305v-5.9a15.927 15.927 0 0 0-14.407 9.761 15.731 15.731 0 0 0 2.241 16.038 3.037 3.037 0 1 1-4.775 3.754 21.694 21.694 0 0 1-4.646-11.078zM89.91 19.477a15.731 15.731 0 0 1 2.241 16.038 15.908 15.908 0 0 1-14.407 9.761v-5.9a.424.424 0 0 0-.68-.305L64.9 48.01a.374.374 0 0 0 0 .6l12.154 8.94a.422.422 0 0 0 .68-.305V51.33A22 22 0 0 0 99.307 26.8a21.58 21.58 0 0 0-4.634-11.075 3.033 3.033 0 1 0-4.763 3.754z" transform="translate(-54.637)"/>
                </g>
            </g>
        </g>
        <ellipse id="Oval" cx="13" cy="12" fill="#03DAC5" rx="13" ry="12" transform="translate(144.5 107)"/>
        <ellipse id="Oval-2" cx="6.5" cy="6" fill="#03DAC5" rx="6.5" ry="6" transform="translate(123.5 133)"/>
    </g>
</svg>
