<svg width="16" height="16" viewBox="0 0 16 16" fill="none" xmlns="http://www.w3.org/2000/svg">
<path d="M7.30578 0.330555L4.44444 3.90808L1.58311 0.330555C1.46754 0.187669 1.31062 0.0840321 1.13385 0.0338504C0.957077 -0.0163313 0.769115 -0.0106011 0.595729 0.0502555C0.422343 0.111112 0.27202 0.224116 0.165367 0.373776C0.0587138 0.523436 0.000952151 0.702426 0 0.886209V14.2219C0 15.2025 0.797333 16 1.77778 16H14.2222C15.2027 16 16 15.2025 16 14.2219V0.886209C15.999 0.702426 15.9413 0.523436 15.8346 0.373776C15.728 0.224116 15.5777 0.111112 15.4043 0.0502555C15.2309 -0.0106011 15.0429 -0.0163313 14.8662 0.0338504C14.6894 0.0840321 14.5325 0.187669 14.4169 0.330555L11.5556 3.90808L8.69422 0.330555C8.35556 -0.0908534 7.64444 -0.0908534 7.30578 0.330555ZM1.77778 14.2219V12.4438H14.2231V14.2219H1.77778ZM10.8613 5.88709C11.2 6.30939 11.912 6.30939 12.2507 5.88709L14.2222 3.42088L14.2231 10.6657H1.77778V3.42088L3.75022 5.88709C4.08889 6.30939 4.80089 6.30939 5.13956 5.88709L8 2.30957L10.8613 5.88709Z" fill="white"/>
</svg>
